<svg width="200" height="124" viewBox="0 0 200 124" fill="none" xmlns="http://www.w3.org/2000/svg">
<path d="M188.826 87.46C188.609 89.6504 190.312 91.496 192.45 91.5186V84.1548C192.34 84.1548 192.227 84.161 192.112 84.1712C190.388 84.3416 188.995 85.7356 188.824 87.46H188.826Z" fill="#0B1D49"/>
<path d="M182.709 90.373C180.823 89.2419 180.823 86.5074 182.709 85.3763L191.328 80.207C191.667 80.0038 192.055 79.893 192.451 79.8868V77.8134H61.7295V97.8477H192.451V95.8625C192.055 95.8564 191.669 95.7455 191.328 95.5423L182.709 90.373Z" fill="#0B1D49"/>
<path d="M188.826 87.4611C188.996 85.7366 190.389 84.3427 192.113 84.1723C192.226 84.1621 192.339 84.1559 192.452 84.1559V79.89C192.056 79.8961 191.67 80.007 191.329 80.2102L182.71 85.3794C180.824 86.5106 180.824 89.2451 182.71 90.3762L191.329 95.5454C191.668 95.7487 192.056 95.8595 192.452 95.8657V91.5217C190.311 91.4992 188.61 89.6536 188.828 87.4631L188.826 87.4611Z" fill="#99FF00"/>
<path d="M61.7304 77.8134H3.8457V97.8477H61.7304V77.8134Z" fill="#99FF00"/>
<path d="M195.288 27.4524H177.301C176.937 27.4524 176.613 27.6782 176.488 28.019L166.978 53.9677C166.701 54.7252 165.63 54.7252 165.353 53.9677L155.8 27.8178C155.72 27.5981 155.511 27.4503 155.277 27.4503H136.141C135.907 27.4503 135.698 27.5961 135.618 27.8157L126.034 53.9677C125.757 54.7252 124.686 54.7252 124.409 53.9677L114.854 27.8178C114.774 27.5981 114.565 27.4503 114.331 27.4503H51.1207C51.1207 27.4503 51.1207 27.4503 51.1187 27.4503H49.7253C49.4174 27.4503 49.1671 27.709 49.1671 28.0169V49.0243C49.1671 49.8352 48.1533 50.2006 47.6362 49.5765L28.3933 27.5858C28.2866 27.4585 28.1306 27.3846 27.9644 27.3846H4.4448C4.13698 27.3846 3.88867 27.6351 3.88867 27.943V71.904C3.88867 72.3823 4.27653 72.7703 4.75467 72.7703H20.7121C21.1903 72.7703 21.5781 72.3823 21.5781 71.904V47.3409C21.5781 46.5423 22.5652 46.1708 23.0926 46.7702L45.6907 72.4767C45.8549 72.6635 46.0909 72.838 46.3413 72.838H51.4183C51.4183 72.838 51.4265 72.838 51.4306 72.838H99.506C99.9842 72.838 100.372 72.45 100.372 71.9717V62.0521C100.372 61.5737 99.9842 61.1857 99.506 61.1857H65.8653V55.3781H99.506C99.9842 55.3781 100.372 54.9901 100.372 54.5117V45.7417C100.372 45.2634 99.9842 44.8754 99.506 44.8754H65.8653V39.0677H99.506C99.6353 39.0677 99.7585 39.0369 99.8693 38.9856L114.497 72.3187C114.634 72.6328 114.946 72.836 115.289 72.836H135.189C135.531 72.836 135.843 72.6328 135.981 72.3187L144.92 51.9497C145.224 51.2599 146.2 51.2599 146.504 51.9497L155.443 72.3187C155.581 72.6328 155.893 72.836 156.235 72.836H176.135C176.478 72.836 176.79 72.6328 176.927 72.3187L196.08 28.6656C196.33 28.0929 195.911 27.4524 195.288 27.4524Z" fill="#0B1D49"/>
<path d="M19.5326 88.3691C19.2597 88.0961 18.9313 87.8559 18.5578 87.6588C18.4614 87.6075 18.3629 87.5603 18.2623 87.513C18.2644 87.513 18.2664 87.511 18.2685 87.5089C18.5373 87.3221 18.7856 87.0901 19.0073 86.8212C19.233 86.5441 19.4136 86.2177 19.5449 85.8481C19.6763 85.4766 19.744 85.0537 19.744 84.5897V84.5527C19.744 83.6166 19.4238 82.8221 18.7938 82.1878C17.9545 81.3461 16.7212 80.9191 15.1287 80.9191H9.22266V94.6797H15.3688C16.1035 94.6797 16.7868 94.5935 17.3963 94.4252C18.0202 94.2527 18.564 93.9982 19.0134 93.6697C19.4751 93.331 19.8363 92.9101 20.0867 92.4174C20.337 91.9247 20.4622 91.3622 20.4622 90.7464V90.7094C20.4622 90.2126 20.376 89.763 20.2057 89.373C20.0374 88.9891 19.8117 88.6524 19.5306 88.3712L19.5326 88.3691ZM17.462 84.758V84.795C17.462 85.4273 17.2506 85.8851 16.8135 86.1951C16.3395 86.5317 15.6992 86.7042 14.905 86.7042H11.5005V83.0521H15.0158C15.8388 83.0521 16.4667 83.2163 16.8833 83.5407C17.2732 83.8445 17.462 84.2428 17.462 84.758ZM11.5026 88.8023H15.1657C16.2081 88.8023 16.9921 88.9747 17.4989 89.3155C17.9668 89.6296 18.1843 90.0402 18.1843 90.6109V90.6478C18.1843 91.2391 17.9627 91.6866 17.5071 92.0151C17.0146 92.3682 16.3148 92.5468 15.4242 92.5468H11.5026V88.8023Z" fill="#0B1D49"/>
<path d="M48.7137 88.9193C49.1857 88.6976 49.5981 88.4081 49.9449 88.0612C50.2959 87.7101 50.5709 87.2913 50.7638 86.815C50.9546 86.3429 51.0531 85.803 51.0531 85.2097V85.1727C51.0531 84.6061 50.9567 84.0765 50.7658 83.5981C50.575 83.1178 50.2959 82.6928 49.9367 82.3336C49.4914 81.886 48.923 81.535 48.2478 81.2866C47.585 81.0423 46.8195 80.9191 45.9761 80.9191H40.0146V94.6797H42.2946V89.6522H45.3646L49.1118 94.6797H51.9314L47.8456 89.2436C48.1493 89.1574 48.4387 89.0507 48.7137 88.9193ZM42.2925 83.089H45.8735C46.8216 83.089 47.5583 83.2861 48.0611 83.6782C48.5392 84.0498 48.7711 84.5568 48.7711 85.2302V85.2672C48.7711 85.6182 48.7014 85.9323 48.5659 86.1992C48.4264 86.4743 48.2376 86.7001 47.9872 86.8931C47.7327 87.0901 47.4229 87.2441 47.0658 87.3529C46.7005 87.4638 46.2921 87.5192 45.855 87.5192H42.2925V83.0911V83.089Z" fill="#0B1D49"/>
<path d="M77.8052 80.8258L71.54 94.6788H73.939L75.4719 91.2587H81.9793L83.4937 94.6788H85.9666L79.7014 80.8258H77.8052ZM76.4139 89.1257L78.7348 83.9442L81.0414 89.1257H76.4139Z" fill="#99FF00"/>
<path d="M114.17 88.1112C113.432 87.4974 112.334 87.0334 110.811 86.6947C110.122 86.551 109.551 86.3991 109.118 86.239C108.708 86.0891 108.385 85.9228 108.162 85.7483C107.961 85.5903 107.823 85.4219 107.753 85.2495C107.675 85.0606 107.636 84.8368 107.636 84.5823V84.5453C107.636 84.0793 107.829 83.6975 108.223 83.3752C108.638 83.0364 109.229 82.866 109.978 82.866C110.592 82.866 111.189 82.9687 111.751 83.174C112.313 83.3793 112.886 83.7159 113.452 84.1779L113.783 84.4468L115.131 82.6587L114.819 82.4103C114.123 81.856 113.393 81.4331 112.648 81.1539C111.897 80.8727 111.012 80.731 110.019 80.731C109.36 80.731 108.745 80.8296 108.184 81.0225C107.622 81.2176 107.125 81.4885 106.709 81.8334C106.282 82.1845 105.948 82.6074 105.714 83.0898C105.478 83.5764 105.359 84.1081 105.359 84.6747V84.7116C105.359 85.2967 105.457 85.8181 105.652 86.2616C105.849 86.7132 106.155 87.1135 106.561 87.4481C106.951 87.7725 107.448 88.0496 108.035 88.2734C108.599 88.489 109.27 88.6819 110.025 88.8462C110.68 88.9899 111.224 89.1397 111.644 89.2916C112.038 89.4353 112.344 89.5955 112.555 89.7618C112.746 89.9137 112.878 90.08 112.949 90.2524C113.027 90.4433 113.066 90.6609 113.066 90.9011V90.9381C113.066 91.4513 112.861 91.8619 112.438 92.1965C111.991 92.5496 111.371 92.7282 110.596 92.7282C109.758 92.7282 109.011 92.5866 108.377 92.3094C107.731 92.0261 107.078 91.5888 106.438 91.0058L106.124 90.7184L104.688 92.4182L104.981 92.6851C105.789 93.418 106.656 93.9682 107.554 94.3233C108.455 94.6805 109.461 94.8612 110.542 94.8612C111.222 94.8612 111.86 94.7667 112.44 94.584C113.032 94.3952 113.545 94.1221 113.969 93.769C114.398 93.4118 114.739 92.9787 114.981 92.4778C115.227 91.9727 115.35 91.4061 115.35 90.7923V90.7554C115.35 89.6468 114.956 88.7579 114.179 88.1112H114.17Z" fill="#99FF00"/>
<path d="M138.4 80.9191H136.12V94.6797H138.4V80.9191Z" fill="#99FF00"/>
<path d="M162.125 92.5098V80.9191H159.845V94.6797H169.406V92.5098H162.125Z" fill="#99FF00"/>
</svg>
